<?xml version="1.0"?>
<svg version="1.1" xmlns="http://www.w3.org/2000/svg" width="400" height="200" style="border: dashed 2px #aaa"><path fill="#168ce0" d="M109.6,131.4l9.7-0.2q3.6,0,3.6,0.5q0,1.3-14.6,2.3q-9.3,18.2-9.3,24.8q0,4.6,2.9,4.6q1.1,0,2.75-1.35t2-1.35t0.35,0.5q-0.5,1.8-3.05,3t-4.3,1.2t-2.75-0.2q-2.4-0.9-2.4-5.8q0-10.1,7.7-25.7l-12,0.3q-13.4,13.1-26.9,23q-20.2,14.7-31.6,14.7q-0.7,0-1.4-0.1q-15.4-1.3-15.4-15.8q0-8.6,5.4-18.2q7.2-12.8,19.7-21.85t22.4-9.05t9.9,7.3q0,4.9-3,10.9t-6.1,7.6q-0.3,0.1-0.65,0.1t-0.35-0.2l3.3-5.4q3.4-5.3,3.4-9.3t-1.75-6.45t-5.55-2.45q-7.8,0-18.65,8.7t-16.5,21.4t-5.65,19.8q0,10.7,10.9,10.7q10.4,0,28.2-13.4q7.9-5.9,25.7-22.3q-3.5,0.2-6.5,0.7q-6.4,1.2-6-0.4q0.4-3.7,3.8-3.7q6.6,0.8,11.1,0.8q8.6-7.9,25.7-25.9q11.5-12.1,14-12.1q1.1,0,1.1,1.7t-0.9,5.3t-2,4.4q-2.3,1.6-4.3,4.35t-5.7,10.3t-6.3,12.25z M117.6,107l-25.6,24l5.9,0q2.1,0.1,5.2,0.1q2.9-5.7,14.5-24.1z M169.217,158.8q-6.8,0-6.8-6.3q0-3.6,3.2-9.85t6.7-10.55q-6.2,3-14.3,10.85t-11.3,16.45q-0.5,0.8-1.7,0.8q-2.4,0-2.4-2.7q1-5.5,4.5-12.6q1.1-2.3,6.5-13.4q-7.8,5.1-13.25,10.95t-10.1,11.75t-5.25,5.9q-1.3,0-2.25-1.2t-0.95-2.4q0-1.8,5.2-13.2l-6,6.3q-2.2,2.2-2.75,2.2t-0.55-0.65t0.8-1.45q3.7-3.7,6.6-7.4t9.6-13.2q1.1-1.5,3.1-1.5t2,1.9q0,0.7-5.3,9.75t-5.9,11.35q4.1-4.5,12.3-12.1q12.3-11.4,16.2-11.4q1.2,0,2.2,0.7t1,1.55t-3.9,7.55q-3.8,6.9-4.2,8.2q11.1-9.3,11.1-9.4q9.4-7.3,13.5-7.3q1.2,0,2.25,0.75t1.05,1.75q0,0.2-6.5,8.45t-7.3,13.55q-0.2,1.8,0.7,2.7t3.25,0.9t6.9-3.25t9.25-8.75q1.8-2,2.45-2t0.65,0.5q0,0.7-0.9,1.6q-4.9,5.9-10.55,10.05t-8.85,4.15z M236.734,158.8q-6.8,0-6.8-6.3q0-3.6,3.2-9.85t6.7-10.55q-6.2,3-14.3,10.85t-11.3,16.45q-0.5,0.8-1.7,0.8q-2.4,0-2.4-2.7q1-5.5,4.5-12.6q1.1-2.3,6.5-13.4q-7.8,5.1-13.25,10.95t-10.1,11.75t-5.25,5.9q-1.3,0-2.25-1.2t-0.95-2.4q0-1.8,5.2-13.2l-6,6.3q-2.2,2.2-2.75,2.2t-0.55-0.65t0.8-1.45q3.7-3.7,6.6-7.4t9.6-13.2q1.1-1.5,3.1-1.5t2,1.9q0,0.7-5.3,9.75t-5.9,11.35q4.1-4.5,12.3-12.1q12.3-11.4,16.2-11.4q1.2,0,2.2,0.7t1,1.55t-3.9,7.55q-3.8,6.9-4.2,8.2q11.1-9.3,11.1-9.4q9.4-7.3,13.5-7.3q1.2,0,2.25,0.75t1.05,1.75q0,0.2-6.5,8.45t-7.3,13.55q-0.2,1.8,0.7,2.7t3.25,0.9t6.9-3.25t9.25-8.75q1.8-2,2.45-2t0.65,0.5q0,0.7-0.9,1.6q-4.9,5.9-10.55,10.05t-8.85,4.15z M289.651,130.1l1.4-0.3q1.1,0,2.1,0.9t1,1.4t-6.2,9.65t-6.2,12.75q0,0.3,0.1,0.6q0.5,2.3,2.2,2.3q5.2,0,19-17.2q0.3-0.4,0.7-0.4t0.4,0.75t-0.9,1.95q-12.8,17.1-19.5,17.1q-0.9,0-1.7-0.3q-4.4-1.7-4.4-6.6q0-1.7,0.4-3.4l-6.2,6q-5.9,5.2-8.55,5.2t-5.05-1.7q-2.7-2-2.7-5.3q0-7.3,10.2-17.45t18.7-10.15q3.3,0,4.4,2.3q0.3,0.8,0.5,1.35t0.3,0.55z M259.751,154.7q0,3.6,2.5,3.6q5.8,0,15.8-12.7l10.6-14.6q-0.8-1.4-2.6-1.4q-6.1,0-16.2,9.45t-10.1,15.65z M322.468,160.5q-7.5,0-7.5-8.3q0-4.2,2.2-9.2t4.8-8.4q-0.5,0.1-1.3,0.1q-2.4,0-4-3.4l-7.4,9.6q-6.2,7.7-7.2,7.7q-0.5,0-0.5-0.4q0-1,1.7-2.9q8.7-10.1,12.3-17.1q2.3-8.7,5.8-8.7q2.3,0,2.3,2t-2.5,5.1l-2.4,3.2q0,2.1,3.1,2.1q1.8,0,4-1.3l2.6-1.6q0.2-0.1,1-0.1t1.7,1t0.6,1.8l-6.9,8.7q-6.4,8.2-6.4,12.95t4.4,4.75q4.6,0,11.3-4.9q4-2.9,7.3-6.5q3.1-3.6,3.4-3.6q0.7,0,0.7,0.75t-0.9,1.75l-3.2,3.6q-2.7,2.8-6,5.4q-7.9,5.9-13,5.9z M464.702,131.4l9.7-0.2q3.6,0,3.6,0.5q0,1.3-14.6,2.3q-9.3,18.2-9.3,24.8q0,4.6,2.9,4.6q1.1,0,2.75-1.35t2-1.35t0.35,0.5q-0.5,1.8-3.05,3t-4.3,1.2t-2.75-0.2q-2.4-0.9-2.4-5.8q0-10.1,7.7-25.7l-12,0.3q-13.4,13.1-26.9,23q-20.2,14.7-31.6,14.7q-0.7,0-1.4-0.1q-15.4-1.3-15.4-15.8q0-8.6,5.4-18.2q7.2-12.8,19.7-21.85t22.4-9.05t9.9,7.3q0,4.9-3,10.9t-6.1,7.6q-0.3,0.1-0.65,0.1t-0.35-0.2l3.3-5.4q3.4-5.3,3.4-9.3t-1.75-6.45t-5.55-2.45q-7.8,0-18.65,8.7t-16.5,21.4t-5.65,19.8q0,10.7,10.9,10.7q10.4,0,28.2-13.4q7.9-5.9,25.7-22.3q-3.5,0.2-6.5,0.7q-6.4,1.2-6-0.4q0.4-3.7,3.8-3.7q6.6,0.8,11.1,0.8q8.6-7.9,25.7-25.9q11.5-12.1,14-12.1q1.1,0,1.1,1.7t-0.9,5.3t-2,4.4q-2.3,1.6-4.3,4.35t-5.7,10.3t-6.3,12.25z M472.702,107l-25.6,24l5.9,0q2.1,0.1,5.2,0.1q2.9-5.7,14.5-24.1z M499.319,135.1q0-6.8,4.2-6.8q0.4,0,0.9,0.1q1.7,0.3,1.7,2.6t-0.8,5.8q-0.8,2.6-1.1,3.9q0.3,1.7,1.65,4.35t3.7,2.65t5.25-3.2q0.6-0.7,1.15-0.7t0.6,0.65t-0.75,1.75q-3.1,3.7-6.5,3.7q-4.9,0-7.9-7.2q-3.1,7.1-8.8,12.25t-11.3,5.15q-5.3,0-5.3-8q0-6.3,11.75-23.2t17.95-16.9q1.3,0,2.35,0.8t1.05,1.9q0-0.1-1.45,1.5t-7.9,8.6t-12.65,15.4t-6.2,13q0,1.2,0.65,2.6t2.15,1.4q4.4,0,10.3-6.8q4.9-6,6-10.1q-0.7-2.1-0.7-5.2z M550.236,129.7q11.2-18.2,15.6-18.2q0.7,0,1.95,0.45t1.25,1.35q0,0.5-0.5,1.3q-8,9.8-11.9,14.7q-11.8,14.9-13,21.4q-0.3,1.4-0.3,2.8q0,4.5,3.7,4.5q7.4,0,19.3-13.7q1-1,1.7-1.15t0.7,0.35t-0.6,1.2q-11.6,13.9-20.6,15.5q-0.5,0.1-1.4,0.1q-3.1,0-4.65-2.15t-1.55-4.65q0-2.8,1.1-6.2l-8.1,8.1q-5.5,5.1-8.65,5.1t-5.25-1.7q-2.5-1.9-2.5-5.3q0-7.3,10.2-17.45t18.7-10.15q2.8,0,3.9,1.5q0.4,0.5,0.9,2.3z M520.736,154.7q0,3.6,2.5,3.6q4.3,0,14.3-11.8q1.8-2.1,12-15.7q-0.7-1.2-2.4-1.2q-6.2,0-16.3,9.45t-10.1,15.65z M573.653,161.3q-1.1,0-2-0.3q-6.4-1.8-6.4-7.2q0-7,8.8-16.2t15.8-9.2q2.3,0,3.75,1.25t1.45,3.05q0,5.6-8.45,10.7t-13.75,5.1q-0.8,0-1.4-0.2q-1.5,2.7-1.5,5.7q0,5.2,4.95,5.2t12.85-6.7q6.1-4.9,10.4-10.4q0.9-1.2,1.55-1.2t0.65,0.6t-0.8,1.7q-5.4,7.1-13,12.6t-12.9,5.5z M592.553,132.5q0-1.2-2.55-1.2t-7.25,3.9q-6.3,5.2-9.8,10.9q0.6,0.2,1.3,0.2q3.8,0,10.15-4.05t7.95-8.85q0.2-0.5,0.2-0.9z M605.87,158q3.3,0,8.5-3.5t10.1-9.5q1.2-1.6,1.9-1.6t0.7,0.6t-4.1,5.2q-10,11-16.7,11q-3.3,0-5.6-1.55t-2.3-4.8t1.7-7.55q2.9-6.8,9.3-17.1q11.7-19,16.6-19q1,0,2.05,0.75t1.15,1.65q-2.3,3.1-8.85,11.9t-9.05,12.65t-3.75,5.75t-1.85,2.95t-1.4,2.75q-1.7,3.4-1.7,6.4t3.3,3z M647.887,161.2q-7.9,0-13.4-12.5q-1.4,2.1-6.3,11.8q-3.6-1.4-3.6-3.8q0-4.3,12.9-23.6t17.7-22.7q0.4-0.3,1.6-0.3q3.1,0,3.1,1.6q0,0.8-6.95,9t-7.75,9.9q9.1-4.7,14.5-4.7q3.1,0,5.3,2.5q2.1,2.1,2.1,4.3l0,0.6q-0.8,5.7-8,9.4q-5.8,3.1-10.8,3.1t-7-1.3q-0.6-0.1-0.95,0.3t-0.15,1q2.8,12.4,9.3,12.4q3.4,0,8.75-3.8t11.15-10.7q0.7-0.7,1.25-0.7t0.55,0.55t-0.7,1.55q-5.4,6.6-10.2,10.4q-7.3,5.7-12.4,5.7z M662.287,130.6q0-0.8-0.9-1.6t-1.9-0.8q-5.4,0-12.95,4.5t-9.25,10.2q0.9,0,4.8,0.3q4.5,0,11.8-3.7q8.4-4.2,8.4-8.9z M704.404,130.1l1.4-0.3q1.1,0,2.1,0.9t1,1.4t-6.2,9.65t-6.2,12.75q0,0.3,0.1,0.6q0.5,2.3,2.2,2.3q5.2,0,19-17.2q0.3-0.4,0.7-0.4t0.4,0.75t-0.9,1.95q-12.8,17.1-19.5,17.1q-0.9,0-1.7-0.3q-4.4-1.7-4.4-6.6q0-1.7,0.4-3.4l-6.2,6q-5.9,5.2-8.55,5.2t-5.05-1.7q-2.7-2-2.7-5.3q0-7.3,10.2-17.45t18.7-10.15q3.3,0,4.4,2.3q0.3,0.8,0.5,1.35t0.3,0.55z M674.504,154.7q0,3.6,2.5,3.6q5.8,0,15.8-12.7l10.6-14.6q-0.8-1.4-2.6-1.4q-6.1,0-16.2,9.45t-10.1,15.65z M737.221,160.5q-7.5,0-7.5-8.3q0-4.2,2.2-9.2t4.8-8.4q-0.5,0.1-1.3,0.1q-2.4,0-4-3.4l-7.4,9.6q-6.2,7.7-7.2,7.7q-0.5,0-0.5-0.4q0-1,1.7-2.9q8.7-10.1,12.3-17.1q2.3-8.7,5.8-8.7q2.3,0,2.3,2t-2.5,5.1l-2.4,3.2q0,2.1,3.1,2.1q1.8,0,4-1.3l2.6-1.6q0.2-0.1,1-0.1t1.7,1t0.6,1.8l-6.9,8.7q-6.4,8.2-6.4,12.95t4.4,4.75q4.6,0,11.3-4.9q4-2.9,7.3-6.5q3.1-3.6,3.4-3.6q0.7,0,0.7,0.75t-0.9,1.75l-3.2,3.6q-2.7,2.8-6,5.4q-7.9,5.9-13,5.9z M765.738,161.3q-1.1,0-2-0.3q-6.4-1.8-6.4-7.2q0-7,8.8-16.2t15.8-9.2q2.3,0,3.75,1.25t1.45,3.05q0,5.6-8.45,10.7t-13.75,5.1q-0.8,0-1.4-0.2q-1.5,2.7-1.5,5.7q0,5.2,4.95,5.2t12.85-6.7q6.1-4.9,10.4-10.4q0.9-1.2,1.55-1.2t0.65,0.6t-0.8,1.7q-5.4,7.1-13,12.6t-12.9,5.5z M784.638,132.5q0-1.2-2.55-1.2t-7.25,3.9q-6.3,5.2-9.8,10.9q0.6,0.2,1.3,0.2q3.8,0,10.15-4.05t7.95-8.85q0.2-0.5,0.2-0.9z M838.555,158.8q-6.8,0-6.8-6.3q0-3.6,3.2-9.85t6.7-10.55q-6.2,3-14.3,10.85t-11.3,16.45q-0.5,0.8-1.7,0.8q-2.4,0-2.4-2.7q1-5.5,4.5-12.6q1.1-2.3,6.5-13.4q-7.8,5.1-13.25,10.95t-10.1,11.75t-5.25,5.9q-1.3,0-2.25-1.2t-0.95-2.4q0-1.8,5.2-13.2l-6,6.3q-2.2,2.2-2.75,2.2t-0.55-0.65t0.8-1.45q3.7-3.7,6.6-7.4t9.6-13.2q1.1-1.5,3.1-1.5t2,1.9q0,0.7-5.3,9.75t-5.9,11.35q4.1-4.5,12.3-12.1q12.3-11.4,16.2-11.4q1.2,0,2.2,0.7t1,1.55t-3.9,7.55q-3.8,6.9-4.2,8.2q11.1-9.3,11.1-9.4q9.4-7.3,13.5-7.3q1.2,0,2.25,0.75t1.05,1.75q0,0.2-6.5,8.45t-7.3,13.55q-0.2,1.8,0.7,2.7t3.25,0.9t6.9-3.25t9.25-8.75q1.8-2,2.45-2t0.65,0.5q0,0.7-0.9,1.6q-4.9,5.9-10.55,10.05t-8.85,4.15z"/><path fill="#" d=""/></svg>
